<svg width="50" height="50" viewBox="0 0 50 50" fill="none" xmlns="http://www.w3.org/2000/svg">
<path fill-rule="evenodd" clip-rule="evenodd" d="M25 0C11.1929 0 0 11.1929 0 25C0 38.8071 11.1929 50 25 50C38.8071 50 50 38.8071 50 25C50 11.1929 38.8071 0 25 0ZM5 25C5 13.9543 13.9543 5 25 5C36.0457 5 45 13.9543 45 25C45 36.0457 36.0457 45 25 45C13.9543 45 5 36.0457 5 25ZM15 18.3333C15 16.4924 16.4924 15 18.3334 15C20.1744 15 21.6668 16.4924 21.6668 18.3333C21.6668 20.1743 20.1744 21.6667 18.3334 21.6667C16.4924 21.6667 15 20.1743 15 18.3333ZM20.3538 33.687C19.238 34.8028 17.4289 34.8028 16.3131 33.687C15.1973 32.5712 15.1973 30.7622 16.3131 29.6464L29.6467 16.313C30.7625 15.1973 32.5716 15.1973 33.6874 16.313C34.8032 17.4288 34.8032 19.2379 33.6874 20.3537L20.3538 33.687ZM28.3332 31.6667C28.3332 29.8257 29.8256 28.3333 31.6666 28.3333C33.5076 28.3333 35 29.8257 35 31.6667C35 33.5076 33.5076 35 31.6666 35C29.8256 35 28.3332 33.5076 28.3332 31.6667Z" fill="#2275C2"/>
</svg>
