<svg width="34" height="34" viewBox="0 0 34 34" fill="none" xmlns="http://www.w3.org/2000/svg">
<path fill-rule="evenodd" clip-rule="evenodd" d="M9.91683 25.5C9.91683 26.2824 10.5511 26.9167 11.3335 26.9167H26.9168C27.6992 26.9167 28.3335 26.2824 28.3335 25.5V15.5834C28.3335 14.801 27.6992 14.1667 26.9168 14.1667V21.25C26.9168 23.5973 25.014 25.5 22.6668 25.5H9.91683ZM26.9168 11.3334C26.9168 8.98616 25.014 7.08337 22.6668 7.08337H7.0835C4.73629 7.08337 2.8335 8.98616 2.8335 11.3334V21.25C2.8335 23.5973 4.73629 25.5 7.0835 25.5C7.0835 27.8473 8.98629 29.75 11.3335 29.75H26.9168C29.264 29.75 31.1668 27.8473 31.1668 25.5V15.5834C31.1668 13.2362 29.264 11.3334 26.9168 11.3334ZM22.6668 22.6667C23.4492 22.6667 24.0835 22.0324 24.0835 21.25L24.0835 11.3334C24.0835 10.551 23.4492 9.91671 22.6668 9.91671L7.0835 9.91671C6.30109 9.91671 5.66683 10.551 5.66683 11.3334L5.66683 21.25C5.66683 22.0324 6.30109 22.6667 7.0835 22.6667L22.6668 22.6667ZM22.6668 19.8334C22.6668 19.051 22.0326 18.4167 21.2502 18.4167C20.4678 18.4167 19.8335 19.051 19.8335 19.8334C19.8335 20.6158 20.4678 21.25 21.2502 21.25C22.0326 21.25 22.6668 20.6158 22.6668 19.8334ZM8.50016 11.3334C9.28257 11.3334 9.91683 11.9676 9.91683 12.75C9.91683 13.5324 9.28257 14.1667 8.50016 14.1667C7.71776 14.1667 7.0835 13.5324 7.0835 12.75C7.0835 11.9676 7.71776 11.3334 8.50016 11.3334ZM18.4168 16.2917C18.4168 14.7269 17.1483 13.4584 15.5835 13.4584C14.0187 13.4584 12.7502 14.7269 12.7502 16.2917C12.7502 17.8565 14.0187 19.125 15.5835 19.125C17.1483 19.125 18.4168 17.8565 18.4168 16.2917Z" fill="#2275C2"/>
</svg>
