<svg width="34" height="34" viewBox="0 0 34 34" fill="none" xmlns="http://www.w3.org/2000/svg">
<path fill-rule="evenodd" clip-rule="evenodd" d="M16.9997 5.66669C12.8047 5.66669 9.14213 7.94581 7.18255 11.3334L4.24968 11.3334C3.77585 11.3334 3.33339 11.5702 3.07068 11.9646C2.80798 12.3589 2.75982 12.8585 2.94235 13.2958L4.46164 16.9352L2.93576 20.7203C2.75975 21.157 2.81212 21.6525 3.07552 22.0427C3.33891 22.4328 3.77892 22.6667 4.24968 22.6667H7.18255C9.14213 26.0542 12.8047 28.3334 16.9997 28.3334C21.1946 28.3334 24.8572 26.0542 26.8168 22.6667H29.7497C30.2244 22.6667 30.6675 22.4289 30.93 22.0334C31.1925 21.6379 31.2395 21.1372 31.0551 20.6998L29.4756 16.9522L31.0481 13.3493C31.2389 12.912 31.1968 12.408 30.9361 12.0084C30.6753 11.6088 30.2309 11.3673 29.7537 11.3659C28.6289 11.3628 28.0878 11.3599 27.836 11.3573L27.8155 11.3571C27.8004 11.3553 27.7902 11.3543 27.7861 11.3539L27.7847 11.3537C27.7562 11.3508 27.7329 11.3493 27.7205 11.3485C27.6554 11.3446 27.5557 11.3433 27.4425 11.3421C27.3139 11.3408 27.1171 11.3394 26.8195 11.338C24.8606 7.9479 21.1965 5.66669 16.9997 5.66669ZM8.49968 17C8.49968 12.3056 12.3053 8.50002 16.9997 8.50002C21.6941 8.50002 25.4997 12.3056 25.4997 17C25.4997 21.6944 21.6941 25.5 16.9997 25.5C12.3053 25.5 8.49968 21.6944 8.49968 17ZM21.686 15.0013C22.147 14.3692 22.0082 13.483 21.376 13.022C20.7438 12.561 19.8576 12.6998 19.3967 13.332L16.363 17.4924L15.2771 16.1207C14.7914 15.5072 13.9005 15.4036 13.287 15.8893C12.6736 16.3749 12.57 17.2659 13.0556 17.8793L15.2987 20.7127C15.5735 21.0598 15.9948 21.2585 16.4375 21.2497C16.8801 21.241 17.2932 21.0258 17.5541 20.668L21.686 15.0013ZM27.5102 11.3543L27.5035 11.3549C27.5332 11.3518 27.5425 11.3517 27.5102 11.3543Z" fill="#2275C2"/>
</svg>
