<svg width="34" height="34" viewBox="0 0 34 34" fill="none" xmlns="http://www.w3.org/2000/svg">
<path fill-rule="evenodd" clip-rule="evenodd" d="M16.9997 2.83331C9.17564 2.83331 2.83301 9.17595 2.83301 17C2.83301 24.824 9.17564 31.1666 16.9997 31.1666C24.8237 31.1666 31.1663 24.824 31.1663 17C31.1663 9.17595 24.8237 2.83331 16.9997 2.83331ZM5.66634 17C5.66634 10.7408 10.7404 5.66665 16.9997 5.66665C23.2589 5.66665 28.333 10.7408 28.333 17C28.333 23.2592 23.2589 28.3333 16.9997 28.3333C10.7404 28.3333 5.66634 23.2592 5.66634 17ZM11.333 13.2222C11.333 12.179 12.1787 11.3333 13.2219 11.3333C14.2652 11.3333 15.1109 12.179 15.1109 13.2222C15.1109 14.2654 14.2652 15.1111 13.2219 15.1111C12.1787 15.1111 11.333 14.2654 11.333 13.2222ZM14.3668 21.9226C13.7345 22.5549 12.7094 22.5549 12.0771 21.9226C11.4448 21.2903 11.4448 20.2652 12.0771 19.6329L19.6328 12.0774C20.2651 11.4451 21.2902 11.4451 21.9225 12.0774C22.5548 12.7096 22.5548 13.7348 21.9225 14.367L14.3668 21.9226ZM18.8885 20.7778C18.8885 19.7346 19.7342 18.8889 20.7774 18.8889C21.8206 18.8889 22.6663 19.7346 22.6663 20.7778C22.6663 21.821 21.8206 22.6666 20.7774 22.6666C19.7342 22.6666 18.8885 21.821 18.8885 20.7778Z" fill="#2275C2"/>
</svg>
