<svg width="46" height="50" viewBox="0 0 46 50" fill="none" xmlns="http://www.w3.org/2000/svg">
<path fill-rule="evenodd" clip-rule="evenodd" d="M10.5 2.5C10.5 1.11929 11.6193 0 13 0C14.3807 0 15.5 1.11929 15.5 2.5V5H30.5V2.5C30.5 1.11929 31.6193 0 33 0C34.3807 0 35.5 1.11929 35.5 2.5V5H38C42.1421 5 45.5 8.35786 45.5 12.5V17.5V42.5C45.5 46.6421 42.1421 50 38 50H8C3.85787 50 0.5 46.6421 0.5 42.5V17.5V12.5C0.5 8.35787 3.85786 5 8 5H10.5V2.5ZM13 10H33H38C39.3807 10 40.5 11.1193 40.5 12.5V15H5.5V12.5C5.5 11.1193 6.61929 10 8 10H13ZM5.5 20V42.5C5.5 43.8807 6.61929 45 8 45H38C39.3807 45 40.5 43.8807 40.5 42.5V20H5.5ZM30.02 28.9729C30.8335 27.8573 30.5886 26.2935 29.4729 25.48C28.3573 24.6665 26.7935 24.9114 25.98 26.0271L20.6265 33.369L18.7101 30.9482C17.8531 29.8657 16.2808 29.6829 15.1982 30.5399C14.1157 31.3969 13.9329 32.9692 14.7899 34.0518L18.7482 39.0518C19.2332 39.6643 19.9767 40.015 20.7578 39.9995C21.539 39.984 22.268 39.6042 22.7284 38.9729L30.02 28.9729Z" fill="#2275C2"/>
</svg>
