<svg width="50" height="46" viewBox="0 0 50 46" fill="none" xmlns="http://www.w3.org/2000/svg">
<path fill-rule="evenodd" clip-rule="evenodd" d="M6.48223 7.10723C9.72287 3.8666 15.4596 0.5 22.5 0.5C29.521 0.5 35.1359 3.72541 38.3928 6.98224C41.1125 9.70196 43.9209 14.1798 44.7535 19.7109L45.7322 18.7322C46.7085 17.7559 48.2915 17.7559 49.2678 18.7322C50.2441 19.7085 50.2441 21.2915 49.2678 22.2678L44.2678 27.2678C43.367 28.1685 41.933 28.248 40.9383 27.4522L34.6883 22.4522C33.6101 21.5896 33.4353 20.0164 34.2978 18.9383C35.1604 17.8601 36.7336 17.6853 37.8117 18.5478L39.7508 20.0991C39.036 15.9504 36.8989 12.5594 34.8572 10.5178C32.3736 8.0341 27.979 5.5 22.5 5.5C17.0404 5.5 12.5176 8.14291 10.0178 10.6428C7.5341 13.1264 5 17.521 5 23C5 28.4596 7.64291 32.9824 10.1428 35.4822C12.6264 37.9659 17.021 40.5 22.5 40.5C23.8807 40.5 25 41.6193 25 43C25 44.3807 23.8807 45.5 22.5 45.5C15.479 45.5 9.86406 42.2746 6.60723 39.0178C3.3666 35.7771 0 30.0404 0 23C0 15.979 3.22541 10.3641 6.48223 7.10723ZM22.5 14.25C22.5 12.8693 21.3807 11.75 20 11.75C18.6193 11.75 17.5 12.8693 17.5 14.25V25.1875C17.5 25.9084 17.8112 26.5942 18.3537 27.0689L25.8537 33.6314C26.8928 34.5406 28.4722 34.4354 29.3814 33.3963C30.2906 32.3572 30.1854 30.7778 29.1463 29.8686L22.5 24.0531V14.25Z" fill="#2275C2"/>
</svg>
