<svg width="50" height="50" viewBox="0 0 50 50" fill="none" xmlns="http://www.w3.org/2000/svg">
<path fill-rule="evenodd" clip-rule="evenodd" d="M10 0C11.3807 0 12.5 1.09199 12.5 2.43902V9.25968L18.9428 6.32638C19.7171 5.97387 20.6222 6.03155 21.3429 6.47934C22.0636 6.92713 22.5 7.70299 22.5 8.53659V18.2927H27.5V3.65854C27.5 2.3115 28.6193 1.21951 30 1.21951H42.5C43.8807 1.21951 45 2.3115 45 3.65854V45.122H47.5C48.8807 45.122 50 46.2139 50 47.561C50 48.908 48.8807 50 47.5 50H2.5C1.11929 50 0 48.908 0 47.561C0 46.2139 1.11929 45.122 2.5 45.122H5V14.2276C5 13.28 5.5626 12.4182 6.44279 12.0174L7.5 11.5361V2.43902C7.5 1.09199 8.61929 0 10 0ZM40 45.122V6.09756H32.5V18.2927C33.8807 18.2927 35 19.3847 35 20.7317V45.122H40ZM30 23.1707H20V45.122H30V23.1707ZM15 45.122V20.7317C15 19.3847 16.1193 18.2927 17.5 18.2927V12.3663L10 15.781V45.122H15Z" fill="#2275C2"/>
</svg>
