<svg width="50" height="46" viewBox="0 0 50 46" fill="none" xmlns="http://www.w3.org/2000/svg">
<path fill-rule="evenodd" clip-rule="evenodd" d="M48.8143 0.853724C49.5514 1.28527 50 2.04758 50 2.86842V36.0263C50 36.9234 49.465 37.7435 48.618 38.1447L33.618 45.25C32.9142 45.5833 32.0858 45.5833 31.382 45.25L17.5 38.6743L3.61803 45.25C2.84306 45.6171 1.92271 45.5778 1.18567 45.1463C0.448631 44.7147 0 43.9524 0 43.1316V7.60526C0 6.58582 0.688575 5.68076 1.70943 5.35838L16.7094 0.621542C17.3384 0.422905 18.025 0.469129 18.618 0.750043L32.5 7.32571L46.382 0.750043C47.1569 0.382952 48.0773 0.422182 48.8143 0.853724ZM30 11.4375L20 6.70061V34.5625L30 39.2994V11.4375ZM35 39.2994L45 34.5625V6.70061L35 11.4375V39.2994ZM15 34.5625V6.15443L5 9.31233V39.2994L15 34.5625Z" fill="#2275C2"/>
</svg>
