<svg width="30" height="30" viewBox="0 0 30 30" fill="none" xmlns="http://www.w3.org/2000/svg">
<path fill-rule="evenodd" clip-rule="evenodd" d="M14.4148 0.106118C14.7921 -0.0353727 15.2079 -0.0353727 15.5852 0.106118L28.9185 5.10612C29.569 5.35006 30 5.97193 30 6.66667V11.6667C30 12.5871 29.2538 13.3333 28.3333 13.3333H26.6667L26.6667 20L26.6666 26.6667H28.3333C29.2538 26.6667 30 27.4129 30 28.3333C30 29.2538 29.2538 30 28.3333 30H25H18.3333L11.6667 30L5 30H1.66667C0.746192 30 0 29.2538 0 28.3333C0 27.4129 0.746192 26.6667 1.66667 26.6667H3.33334L3.33334 20L3.33335 13.3333H1.66667C0.746192 13.3333 0 12.5871 0 11.6667V6.66667C0 5.97193 0.430955 5.35006 1.08146 5.10612L14.4148 0.106118ZM6.66668 13.3333L6.66668 20L6.66667 26.6667H9.99999L10 20L10 13.3333H6.66668ZM13.3333 13.3333L13.3333 20L13.3333 26.6667H16.6667L16.6667 20L16.6667 13.3333H13.3333ZM20 13.3333L20 20L20 26.6667H23.3333L23.3333 20L23.3333 13.3333H20ZM25 10H18.3333L3.33333 10V7.82167L15 3.44667L26.6667 7.82167V10L25 10Z" fill="white"/>
</svg>
