<svg width="50" height="40" viewBox="0 0 50 40" fill="none" xmlns="http://www.w3.org/2000/svg">
<path fill-rule="evenodd" clip-rule="evenodd" d="M5 32.5C5.69626 34.0231 7.21702 35 8.8917 35H40.5109C41.9147 35 43.2538 34.4099 44.2011 33.3738L45 32.5H43.2453H40.5109H40H10H8.8917H5ZM45 27.5C46.9817 27.5 48.7763 28.6703 49.5754 30.4837C50.3746 32.2971 50.0273 34.4113 48.6901 35.8738L47.8912 36.7477C45.9967 38.8198 43.3185 40 40.5109 40H8.8917C5.31179 40 2.05622 37.9413 0.51805 34.7188C0.186428 34.0503 0 33.2969 0 32.5C0 29.7386 2.23858 27.5 5 27.5V7.5C5 3.35786 8.35787 0 12.5 0H37.5C41.6421 0 45 3.35787 45 7.5V27.5ZM10 27.5H15H35H40V22.5V7.5C40 6.11929 38.8807 5 37.5 5H12.5C11.1193 5 10 6.11929 10 7.5V22.5V27.5Z" fill="#2275C2"/>
</svg>
