<svg width="50" height="46" viewBox="0 0 50 46" fill="none" xmlns="http://www.w3.org/2000/svg">
<path fill-rule="evenodd" clip-rule="evenodd" d="M27.6416 0.5C24.0367 0.5 21.2203 3.38798 21.0383 6.83321C20.9594 8.32742 20.8303 9.9228 20.6268 11.1701C20.5522 11.6273 20.3054 12.3097 19.8567 13.1756C19.4237 14.0114 18.8734 14.8845 18.3138 15.6951C17.7576 16.5007 17.214 17.2132 16.8086 17.725C16.7423 17.8088 16.6798 17.8869 16.6219 17.9589L13.0417 18.9999C12.2034 18.372 11.1612 18 10.0319 18H5.01593C2.24571 18 0 20.2386 0 23V40.5C0 43.2614 2.24571 45.5 5.01593 45.5H10.0319C11.563 45.5 12.9339 44.8161 13.854 43.7381L13.8551 43.7386C16.2469 44.8977 18.8715 45.5 21.531 45.5H40.5864C44.3208 45.5 47.49 42.7696 48.031 39.0864L49.9192 26.2292C50.5839 21.7029 47.0638 17.6429 42.4746 17.6429H36.7996V9.62887C36.7996 4.58713 32.6994 0.5 27.6416 0.5ZM15.0478 38.757L16.0482 39.2419C17.7566 40.0698 19.6314 40.5 21.531 40.5H40.5864C41.8312 40.5 42.8876 39.5899 43.0679 38.3621L44.9561 25.505C45.1777 23.9962 44.0043 22.6429 42.4746 22.6429H34.2916C32.9065 22.6429 31.7836 21.5236 31.7836 20.1429V9.62887C31.7836 7.34856 29.9292 5.5 27.6416 5.5C26.8472 5.5 26.0967 6.16197 26.0473 7.09605C25.9655 8.64642 25.8252 10.4556 25.5776 11.9728C25.3792 13.1892 24.8599 14.4151 24.3133 15.4701C23.7511 16.5553 23.0766 17.6159 22.4458 18.5297C21.8114 19.4485 21.1986 20.2512 20.7453 20.8236C20.5178 21.1107 20.3286 21.3423 20.1944 21.5042C20.1272 21.5852 20.0737 21.6489 20.036 21.6937L19.9913 21.7463L19.9783 21.7615L19.9742 21.7663L19.9728 21.768L19.9722 21.7687C19.972 21.7689 19.9717 21.7692 18.067 20.1429L19.9717 21.7692C19.6548 22.138 19.237 22.4068 18.7693 22.5428L15.0478 23.6249V38.757ZM10.0319 23H5.01593V28V35.5V40.5H10.0319V40.3214V35.5V28V23Z" fill="#2275C2"/>
</svg>
