<svg width="20" height="20" viewBox="0 0 20 20" fill="none" xmlns="http://www.w3.org/2000/svg">
<path fill-rule="evenodd" clip-rule="evenodd" d="M13.7905 10.1366L10.0379 15.6004L6.25672 10.1548C5.63686 8.92405 5.57028 7.45657 6.07578 6.16703C7.54037 2.43085 12.4594 2.41794 13.9455 6.155C14.4562 7.43922 14.3992 8.90439 13.7905 10.1366ZM15.1652 10.9251L10.9285 17.3688L10.9279 17.37L10.8868 17.4532L10.4894 18.0475C10.2919 18.4473 9.76077 18.4494 9.56023 18.0513L9.20311 17.46L9.16138 17.3771L9.16077 17.3759L4.88812 10.9544C4.04245 9.27531 3.95161 7.27325 4.64126 5.51393C6.64156 0.411155 13.3515 0.401974 15.3768 5.49489C16.0731 7.24595 15.9957 9.24388 15.1652 10.9251ZM10.8148 7.8191C10.8159 8.28233 10.4682 8.65871 10.0382 8.65976C9.60825 8.66082 9.25875 8.28615 9.25761 7.82291C9.25648 7.35968 9.60414 6.9833 10.0341 6.98224C10.4641 6.98119 10.8136 7.35586 10.8148 7.8191ZM12.3719 7.81528C12.3753 9.20499 11.3323 10.3341 10.0424 10.3373C8.75237 10.3404 7.70387 9.21643 7.70046 7.82673C7.69706 6.43702 8.74004 5.30788 10.03 5.30472C11.32 5.30156 12.3685 6.42558 12.3719 7.81528Z" fill="#2275C2"/>
</svg>
