<svg width="239" height="38" viewBox="0 0 239 38" fill="none" xmlns="http://www.w3.org/2000/svg">
<path d="M83.5481 28C84.3181 28 84.7801 27.56 85.0881 26.9L91.2701 13.502C91.4901 13.04 91.0501 12.6 90.5661 12.6H88.2121C87.6401 12.6 87.1781 13.062 86.9361 13.612L82.7781 22.874L78.6201 13.612C78.3781 13.062 77.9161 12.6 77.3441 12.6H74.9901C74.5061 12.6 74.0661 13.04 74.2861 13.502L80.4681 26.9C80.7761 27.56 81.2381 28 82.0081 28H83.5481ZM89.8403 27.01C89.6863 27.56 90.0163 28 90.5883 28H92.7003C93.2723 28 93.8223 27.56 93.9763 26.988L94.7023 24.282H102.336V26.988C102.336 27.56 102.776 28 103.348 28H105.372C105.922 28 106.384 27.56 106.384 27.01V13.59C106.384 13.062 105.988 12.6 105.46 12.6H99.6743C96.5503 12.6 93.4483 13.37 92.5463 16.78L89.8403 27.01ZM96.4403 17.792C96.7923 16.472 97.8923 15.636 99.2783 15.636H102.336V21.246H95.4943L96.4403 17.792ZM110.476 12.6C109.904 12.6 109.464 13.062 109.464 13.634V27.01C109.464 27.56 109.926 28 110.476 28H122.862C123.412 28 123.874 27.56 123.874 26.988V25.976C123.874 25.404 123.412 24.964 122.862 24.964H113.512V13.634C113.512 13.062 113.072 12.6 112.5 12.6H110.476Z" fill="#00355D"/>
<path d="M128.678 28C129.25 28 129.69 27.538 129.69 26.966V22.456H137.302C137.852 22.456 138.314 21.994 138.314 21.444V20.432C138.314 19.882 137.852 19.42 137.302 19.42H129.69V15.636H139.04C139.59 15.636 140.052 15.196 140.052 14.624V13.612C140.052 13.04 139.59 12.6 139.04 12.6H126.654C126.104 12.6 125.642 13.04 125.642 13.59V26.966C125.642 27.538 126.082 28 126.654 28H128.678ZM141.819 27.01C141.819 27.56 142.281 28 142.831 28H144.833C145.405 28 145.867 27.538 145.867 26.988V13.612C145.867 13.04 145.405 12.6 144.833 12.6H142.831C142.281 12.6 141.819 13.04 141.819 13.612V27.01ZM151.856 28C152.406 28 152.868 27.538 152.868 26.988V17.77L158.808 26.988C159.16 27.538 159.798 28 160.37 28H163.934C164.506 28 164.946 27.538 164.946 26.988V13.612C164.946 13.04 164.506 12.6 163.934 12.6H162.086C161.536 12.6 161.074 13.04 161.074 13.59V23.6L154.584 13.612C154.254 13.106 153.638 12.6 153.11 12.6H149.942C149.392 12.6 148.952 13.062 148.952 13.612V26.988C148.952 27.538 149.414 28 149.964 28H151.856ZM166.754 27.01C166.6 27.56 166.93 28 167.502 28H169.614C170.186 28 170.736 27.56 170.89 26.988L171.616 24.282H179.25V26.988C179.25 27.56 179.69 28 180.262 28H182.286C182.836 28 183.298 27.56 183.298 27.01V13.59C183.298 13.062 182.902 12.6 182.374 12.6H176.588C173.464 12.6 170.362 13.37 169.46 16.78L166.754 27.01ZM173.354 17.792C173.706 16.472 174.806 15.636 176.192 15.636H179.25V21.246H172.408L173.354 17.792ZM189.282 28C189.832 28 190.294 27.538 190.294 26.988V17.77L196.234 26.988C196.586 27.538 197.224 28 197.796 28H201.36C201.932 28 202.372 27.538 202.372 26.988V13.612C202.372 13.04 201.932 12.6 201.36 12.6H199.512C198.962 12.6 198.5 13.04 198.5 13.59V23.6L192.01 13.612C191.68 13.106 191.064 12.6 190.536 12.6H187.368C186.818 12.6 186.378 13.062 186.378 13.612V26.988C186.378 27.538 186.84 28 187.39 28H189.282ZM204.576 20.3C204.576 25.646 207.282 28.088 212.54 28.088H215.158C218.15 28.088 221.34 26.482 221.34 23.358C221.34 22.368 220.526 22.17 220.24 22.17H218.964C218.348 22.17 217.842 22.456 217.424 23.358C216.94 24.392 216.104 25.052 214.784 25.052H212.65C209.482 25.052 208.624 23.886 208.624 20.3C208.624 16.714 209.482 15.548 212.65 15.548H214.564C215.884 15.548 216.72 16.208 217.204 17.242C217.622 18.144 218.128 18.43 218.744 18.43H220.02C220.306 18.43 221.12 18.232 221.12 17.242C221.12 14.118 217.93 12.512 214.938 12.512H212.54C207.282 12.512 204.576 14.954 204.576 20.3ZM236.837 12.6H224.451C223.901 12.6 223.439 13.04 223.439 13.59V26.966C223.439 27.538 223.879 28 224.451 28H236.793C237.365 28 237.805 27.538 237.805 26.988V25.954C237.805 25.404 237.365 24.964 236.815 24.964H227.487V21.796H235.539C236.089 21.796 236.551 21.334 236.551 20.784V19.772C236.551 19.222 236.089 18.76 235.539 18.76H227.487V15.636H236.837C237.387 15.636 237.849 15.196 237.849 14.624V13.612C237.849 13.04 237.387 12.6 236.837 12.6Z" fill="#2275C2"/>
<path d="M53.3684 11.9371H38.7924H38.4888L35.1484 22.6178H44.3192C48.4004 22.6178 50.7569 19.5946 51.425 18.083L53.3684 11.9371Z" fill="#1B2E58"/>
<path d="M25.2114 37.0682H18.8132C21.2027 29.2623 26.408 12.3678 28.1142 7.23713C29.8204 2.10642 33.9989 0.274579 35.8749 0H42.6877C40.0416 8.59042 34.3701 26.8892 32.8535 31.3609C31.337 35.8326 27.1268 37.029 25.2114 37.0682Z" fill="#1B2E58"/>
<path d="M18.5295 37.0682H25.0959C22.6436 29.2623 17.3013 12.3678 15.5502 7.23713C13.7992 2.10642 9.51067 0.274579 7.58531 0H0.593216C3.30899 8.59042 9.12965 26.8892 10.6862 31.3609C12.2427 35.8326 16.5636 37.029 18.5295 37.0682Z" fill="#1B2E58"/>
<path d="M41.665 10.6807L45.1523 0H58.0002C57.8982 0.180011 57.3884 1.47609 56.1648 5.22033C54.9412 8.96457 51.2907 10.4207 49.6185 10.6807H41.665Z" fill="#2275C2"/>
</svg>
