<svg width="245" height="43" viewBox="0 0 245 43" fill="none" xmlns="http://www.w3.org/2000/svg">
<path d="M89.1411 31C89.9111 31 90.3731 30.56 90.6811 29.9L96.8631 16.502C97.0831 16.04 96.6431 15.6 96.1591 15.6H93.8051C93.2331 15.6 92.7711 16.062 92.5291 16.612L88.3711 25.874L84.2131 16.612C83.9711 16.062 83.5091 15.6 82.9371 15.6H80.5831C80.0991 15.6 79.6591 16.04 79.8791 16.502L86.0611 29.9C86.3691 30.56 86.8311 31 87.6011 31H89.1411ZM95.4333 30.01C95.2793 30.56 95.6093 31 96.1813 31H98.2933C98.8653 31 99.4153 30.56 99.5693 29.988L100.295 27.282H107.929V29.988C107.929 30.56 108.369 31 108.941 31H110.965C111.515 31 111.977 30.56 111.977 30.01V16.59C111.977 16.062 111.581 15.6 111.053 15.6H105.267C102.143 15.6 99.0413 16.37 98.1393 19.78L95.4333 30.01ZM102.033 20.792C102.385 19.472 103.485 18.636 104.871 18.636H107.929V24.246H101.087L102.033 20.792ZM116.069 15.6C115.497 15.6 115.057 16.062 115.057 16.634V30.01C115.057 30.56 115.519 31 116.069 31H128.455C129.005 31 129.467 30.56 129.467 29.988V28.976C129.467 28.404 129.005 27.964 128.455 27.964H119.105V16.634C119.105 16.062 118.665 15.6 118.093 15.6H116.069ZM134.271 31C134.843 31 135.283 30.538 135.283 29.966V25.456H142.895C143.445 25.456 143.907 24.994 143.907 24.444V23.432C143.907 22.882 143.445 22.42 142.895 22.42H135.283V18.636H144.633C145.183 18.636 145.645 18.196 145.645 17.624V16.612C145.645 16.04 145.183 15.6 144.633 15.6H132.247C131.697 15.6 131.235 16.04 131.235 16.59V29.966C131.235 30.538 131.675 31 132.247 31H134.271ZM147.412 30.01C147.412 30.56 147.874 31 148.424 31H150.426C150.998 31 151.46 30.538 151.46 29.988V16.612C151.46 16.04 150.998 15.6 150.426 15.6H148.424C147.874 15.6 147.412 16.04 147.412 16.612V30.01ZM157.449 31C157.999 31 158.461 30.538 158.461 29.988V20.77L164.401 29.988C164.753 30.538 165.391 31 165.963 31H169.527C170.099 31 170.539 30.538 170.539 29.988V16.612C170.539 16.04 170.099 15.6 169.527 15.6H167.679C167.129 15.6 166.667 16.04 166.667 16.59V26.6L160.177 16.612C159.847 16.106 159.231 15.6 158.703 15.6H155.535C154.985 15.6 154.545 16.062 154.545 16.612V29.988C154.545 30.538 155.007 31 155.557 31H157.449ZM172.347 30.01C172.193 30.56 172.523 31 173.095 31H175.207C175.779 31 176.329 30.56 176.483 29.988L177.209 27.282H184.843V29.988C184.843 30.56 185.283 31 185.855 31H187.879C188.429 31 188.891 30.56 188.891 30.01V16.59C188.891 16.062 188.495 15.6 187.967 15.6H182.181C179.057 15.6 175.955 16.37 175.053 19.78L172.347 30.01ZM178.947 20.792C179.299 19.472 180.399 18.636 181.785 18.636H184.843V24.246H178.001L178.947 20.792ZM194.875 31C195.425 31 195.887 30.538 195.887 29.988V20.77L201.827 29.988C202.179 30.538 202.817 31 203.389 31H206.953C207.525 31 207.965 30.538 207.965 29.988V16.612C207.965 16.04 207.525 15.6 206.953 15.6H205.105C204.555 15.6 204.093 16.04 204.093 16.59V26.6L197.603 16.612C197.273 16.106 196.657 15.6 196.129 15.6H192.961C192.411 15.6 191.971 16.062 191.971 16.612V29.988C191.971 30.538 192.433 31 192.983 31H194.875ZM210.169 23.3C210.169 28.646 212.875 31.088 218.133 31.088H220.751C223.743 31.088 226.933 29.482 226.933 26.358C226.933 25.368 226.119 25.17 225.833 25.17H224.557C223.941 25.17 223.435 25.456 223.017 26.358C222.533 27.392 221.697 28.052 220.377 28.052H218.243C215.075 28.052 214.217 26.886 214.217 23.3C214.217 19.714 215.075 18.548 218.243 18.548H220.157C221.477 18.548 222.313 19.208 222.797 20.242C223.215 21.144 223.721 21.43 224.337 21.43H225.613C225.899 21.43 226.713 21.232 226.713 20.242C226.713 17.118 223.523 15.512 220.531 15.512H218.133C212.875 15.512 210.169 17.954 210.169 23.3ZM242.43 15.6H230.044C229.494 15.6 229.032 16.04 229.032 16.59V29.966C229.032 30.538 229.472 31 230.044 31H242.386C242.958 31 243.398 30.538 243.398 29.988V28.954C243.398 28.404 242.958 27.964 242.408 27.964H233.08V24.796H241.132C241.682 24.796 242.144 24.334 242.144 23.784V22.772C242.144 22.222 241.682 21.76 241.132 21.76H233.08V18.636H242.43C242.98 18.636 243.442 18.196 243.442 17.624V16.612C243.442 16.04 242.98 15.6 242.43 15.6Z" fill="white"/>
<path d="M61.2203 13.8474H44.3118H43.9596L40.0847 26.2372H50.723C55.4573 26.2372 58.1909 22.7303 58.9658 20.9768L61.2203 13.8474Z" fill="white"/>
<path d="M28.5576 43H21.1356C23.9074 33.945 29.9458 14.347 31.925 8.39524C33.9041 2.44349 38.7513 0.318519 40.9275 0H48.8305C45.761 9.96508 39.182 31.1921 37.4227 36.3794C35.6634 41.5667 30.7796 42.9545 28.5576 43Z" fill="white"/>
<path d="M20.8064 43H28.4237C25.579 33.945 19.3817 14.347 17.3504 8.39524C15.3192 2.44349 10.3444 0.318519 8.11097 0H-2.47955e-05C3.15033 9.96508 9.90244 31.1921 11.708 36.3794C13.5136 41.5667 18.5259 42.9545 20.8064 43Z" fill="white"/>
<path d="M47.644 12.3898L51.6894 0H66.5932C66.4749 0.208817 65.8835 1.7123 64.4641 6.0557C63.0447 10.3991 58.8101 12.0882 56.8702 12.3898H47.644Z" fill="white"/>
</svg>
