<svg width="20" height="20" viewBox="0 0 20 20" fill="none" xmlns="http://www.w3.org/2000/svg">
<path fill-rule="evenodd" clip-rule="evenodd" d="M4.16663 3.33325C2.78591 3.33325 1.66663 4.45254 1.66663 5.83325V14.1666C1.66663 15.5473 2.78591 16.6666 4.16663 16.6666H15.8333C17.214 16.6666 18.3333 15.5473 18.3333 14.1666V5.83325C18.3333 4.45254 17.214 3.33325 15.8333 3.33325H4.16663ZM3.40939 5.48487C3.5413 5.19861 3.83076 4.99992 4.16663 4.99992H15.8333C16.1692 4.99992 16.4586 5.19861 16.5905 5.48487L10.5116 10.2129C10.2107 10.447 9.78927 10.447 9.48834 10.2129L3.40939 5.48487ZM3.33329 7.53712V12.3874L6.3438 9.87862L3.33329 7.53712ZM3.40238 14.4993C3.53083 14.794 3.82468 14.9999 4.16663 14.9999H15.8333C16.1752 14.9999 16.4691 14.794 16.5975 14.4993L12.3095 10.926L11.5348 11.5285C10.632 12.2307 9.36789 12.2307 8.46511 11.5285L7.6904 10.926L3.40238 14.4993ZM16.6666 12.3874V7.53712L13.6561 9.87862L16.6666 12.3874Z" fill="#2275C2"/>
</svg>
