<svg width="50" height="50" viewBox="0 0 50 50" fill="none" xmlns="http://www.w3.org/2000/svg">
<path fill-rule="evenodd" clip-rule="evenodd" d="M25 50C11.1929 50 0 38.8071 0 25C0 11.1929 11.1929 0 25 0C38.8071 0 50 11.1929 50 25C50 38.8071 38.8071 50 25 50ZM25 5C13.9543 5 5 13.9543 5 25C5 31.316 7.92769 36.9481 12.5 40.6134V39.6429C12.5 35.4312 14.6441 31.7204 17.9004 29.5424C16.1075 27.7351 15 25.2469 15 22.5C15 16.9772 19.4772 12.5 25 12.5C30.5228 12.5 35 16.9772 35 22.5C35 25.2469 33.8925 27.7351 32.0996 29.5424C35.3559 31.7204 37.5 35.4312 37.5 39.6429V40.6134C42.0723 36.9481 45 31.316 45 25C45 13.9543 36.0457 5 25 5ZM32.5 43.5462V39.6429C32.5 35.698 29.302 32.5 25.3571 32.5H25H24.6429C20.698 32.5 17.5 35.698 17.5 39.6429V43.5462C19.8161 44.4837 22.3477 45 25 45C27.6523 45 30.1839 44.4837 32.5 43.5462ZM25 27.5C27.7614 27.5 30 25.2614 30 22.5C30 19.7386 27.7614 17.5 25 17.5C22.2386 17.5 20 19.7386 20 22.5C20 25.2614 22.2386 27.5 25 27.5Z" fill="#2275C2"/>
</svg>
