<svg width="20" height="20" viewBox="0 0 20 20" fill="none" xmlns="http://www.w3.org/2000/svg">
<path fill-rule="evenodd" clip-rule="evenodd" d="M5.2531 3.33168C5.25312 3.33167 5.25332 3.33189 5.25366 3.33239L5.2531 3.33168ZM5.28899 3.38859L6.96171 6.05011C6.75958 6.24174 6.5391 6.43155 6.30182 6.63584C6.09788 6.81141 5.88153 6.99767 5.65374 7.20496C5.08917 7.71873 4.98012 8.54503 5.34551 9.18809C7.27768 12.5886 9.91302 14.1359 11.0922 14.6914C11.8026 15.0261 12.5745 14.762 13.0041 14.2151L14.1616 12.7417C14.1624 12.7407 14.1623 12.741 14.1618 12.7413C14.1618 12.7413 14.1626 12.7408 14.1644 12.7405C14.1661 12.7402 14.1679 12.7403 14.1693 12.7405C14.1703 12.7407 14.1718 12.7411 14.1742 12.7426C14.8487 13.1589 15.7897 13.7246 16.6541 14.2036C16.4989 15.1408 16.1423 15.6868 15.7491 16.0205C15.3362 16.371 14.8023 16.5555 14.2068 16.6221C13.0177 16.7551 11.8107 16.3944 11.5429 16.3065C11.2475 16.1554 9.62792 15.3029 7.8976 13.9214C6.11337 12.4968 4.32427 10.5983 3.64003 8.42084C3.13996 6.82949 3.32853 5.70967 3.72157 4.93724C4.10152 4.19052 4.71639 3.6837 5.28899 3.38859ZM4.68389 1.81339C5.47216 1.43951 6.28727 1.82933 6.66694 2.43343L8.41684 5.21777C8.77061 5.78067 8.79487 6.60354 8.21974 7.16723C7.97326 7.40881 7.63033 7.70574 7.31122 7.98205C7.13606 8.13372 6.96807 8.27917 6.82714 8.40585C8.49007 11.3015 10.7133 12.6412 11.7245 13.131L12.8501 11.6982C13.3815 11.0218 14.3278 10.8636 15.0483 11.3084C15.7149 11.7198 16.6365 12.2735 17.4716 12.7359C18.0286 13.0442 18.427 13.6871 18.3141 14.4129C18.1114 15.7164 17.5818 16.6659 16.8271 17.3065C16.0851 17.9365 15.2012 18.2037 14.3914 18.2943C12.7987 18.4724 11.2754 17.9901 10.9972 17.897C10.9268 17.8734 10.8683 17.8485 10.8055 17.8166C10.5068 17.6649 8.74688 16.7472 6.85843 15.2394C4.98962 13.7473 2.88205 11.589 2.04591 8.92812C1.43172 6.97361 1.61341 5.38884 2.23339 4.17041C2.8425 2.97334 3.82892 2.21889 4.68389 1.81339Z" fill="#2275C2"/>
</svg>
