<svg width="20" height="20" viewBox="0 0 20 20" fill="none" xmlns="http://www.w3.org/2000/svg">
<path fill-rule="evenodd" clip-rule="evenodd" d="M4.29791 2.19683L4.29858 2.19767L4.29791 2.19683ZM4.34092 2.26436L6.34545 5.4229C6.10322 5.65032 5.83901 5.87557 5.55466 6.118C5.31027 6.32636 5.051 6.54741 4.77803 6.79341C4.10146 7.40312 3.97078 8.38373 4.40865 9.14687C6.7241 13.1824 9.8822 15.0186 11.2953 15.6779C12.1466 16.0751 13.0716 15.7617 13.5865 15.1126L14.9736 13.364C14.9736 13.364 14.9748 13.3631 14.9769 13.3627C14.979 13.3623 14.9828 13.3627 14.9828 13.3627C14.9828 13.3627 14.9858 13.3634 14.9887 13.3652C15.797 13.8592 16.9247 14.5305 17.9605 15.0989C17.7745 16.2112 17.3471 16.8591 16.8759 17.2552C16.3812 17.6712 15.7413 17.8901 15.0277 17.9691C13.6028 18.1269 12.1563 17.6988 11.8354 17.5945C11.4814 17.4153 9.54055 16.4036 7.467 14.7641C5.32883 13.0735 3.18484 10.8204 2.36486 8.23634C1.7656 6.34782 1.99156 5.01888 2.46257 4.10221C2.9179 3.21604 3.65473 2.61458 4.34092 2.26436ZM3.61578 0.395004C4.56043 -0.0486926 5.53722 0.413922 5.99221 1.13084L8.08923 4.43513C8.51318 5.10314 8.54224 6.07967 7.85303 6.74863C7.55766 7.03533 7.14671 7.3877 6.76429 7.71561C6.55438 7.8956 6.35307 8.06822 6.18419 8.21855C8.17699 11.6549 10.8412 13.2448 12.053 13.8261L13.4019 12.1258C14.0387 11.323 15.1727 11.1353 16.0362 11.6631C16.835 12.1513 17.9394 12.8084 18.9402 13.3572C19.6076 13.7231 20.0851 14.486 19.9498 15.3473C19.7068 16.8943 19.0722 18.0211 18.1679 18.7814C17.2786 19.5289 16.2193 19.8461 15.249 19.9536C13.3403 20.1649 11.5148 19.5926 11.1814 19.482C11.097 19.454 11.027 19.4245 10.9517 19.3866C10.5938 19.2066 8.48474 18.1175 6.22168 16.3282C3.98216 14.5575 1.45652 11.9961 0.454518 8.83836C-0.281506 6.51885 -0.063776 4.63814 0.679187 3.19218C1.40913 1.77157 2.59122 0.876237 3.61578 0.395004Z" fill="#2275C2"/>
<path fill-rule="evenodd" clip-rule="evenodd" d="M12.7105 0.0912131C12.2077 -0.138741 11.613 0.0810846 11.3822 0.582208C11.1515 1.08333 11.372 1.67599 11.8749 1.90594C14.2013 2.9698 16.864 4.96993 18.0808 7.72996C18.3033 8.23475 18.8944 8.46419 19.4009 8.24242C19.9074 8.02065 20.1377 7.43165 19.9151 6.92685C18.4289 3.55547 15.2873 1.26957 12.7105 0.0912131ZM11.9688 3.63303C11.474 3.38645 10.8722 3.58634 10.6248 4.0795C10.3774 4.57265 10.5779 5.17233 11.0728 5.4189C12.0142 5.88796 12.6657 6.32998 13.1917 6.85419C13.7177 7.3784 14.1613 8.02765 14.632 8.96577C14.8794 9.45893 15.4811 9.65882 15.976 9.41224C16.4709 9.16566 16.6715 8.56599 16.424 8.07283C15.8929 7.01428 15.3347 6.16604 14.6085 5.44233C13.8822 4.71862 13.0311 4.1623 11.9688 3.63303Z" fill="#2275C2"/>
</svg>
