<svg width="34" height="34" viewBox="0 0 34 34" fill="none" xmlns="http://www.w3.org/2000/svg">
<path fill-rule="evenodd" clip-rule="evenodd" d="M7.30718 2.83337C4.83643 2.83337 2.8335 4.83631 2.8335 7.30706V25.2018C2.8335 27.6725 4.83643 29.6755 7.30718 29.6755H13.2721H17.2719C18.689 30.6177 20.3901 31.1667 22.2195 31.1667C27.161 31.1667 31.1668 27.1608 31.1668 22.2193C31.1668 17.7859 27.9424 14.1056 23.7107 13.3957V7.30706C23.7107 4.83631 21.7078 2.83337 19.237 2.83337H7.30718ZM13.2721 22.2193C13.2721 23.849 13.7078 25.377 14.4691 26.693H13.2721H7.30718C6.4836 26.693 5.81595 26.0254 5.81595 25.2018V7.30706C5.81595 6.48348 6.4836 5.81583 7.30718 5.81583H8.79841V7.30706C8.79841 8.13064 9.46605 8.79829 10.2896 8.79829C11.1132 8.79829 11.7809 8.13064 11.7809 7.30706V5.81583H19.237C20.0606 5.81583 20.7282 6.48348 20.7282 7.30706V13.3957C16.4966 14.1056 13.2721 17.7859 13.2721 22.2193ZM16.2545 22.2193C16.2545 18.925 18.9251 16.2544 22.2195 16.2544C25.5138 16.2544 28.1844 18.925 28.1844 22.2193C28.1844 25.5137 25.5138 28.1843 22.2195 28.1843C18.9251 28.1843 16.2545 25.5137 16.2545 22.2193ZM10.2896 14.7632C9.46605 14.7632 8.79841 14.0956 8.79841 13.272V11.7807C8.79841 10.9572 9.46605 10.2895 10.2896 10.2895C11.1132 10.2895 11.7809 10.9572 11.7809 11.7807V13.272C11.7809 14.0956 11.1132 14.7632 10.2896 14.7632ZM8.79841 19.2369C8.79841 20.0605 9.46605 20.7281 10.2896 20.7281C11.1132 20.7281 11.7809 20.0605 11.7809 19.2369V17.7457C11.7809 16.9221 11.1132 16.2544 10.2896 16.2544C9.46605 16.2544 8.79841 16.9221 8.79841 17.7457V19.2369ZM25.4173 20.6494C25.7856 19.9128 25.487 19.017 24.7504 18.6487C24.0138 18.2804 23.118 18.579 22.7497 19.3156L21.5326 21.7499L21.501 21.712C20.9738 21.0794 20.0335 20.9939 19.4008 21.5211C18.7681 22.0484 18.6826 22.9887 19.2098 23.6214L20.7011 25.4108C21.0232 25.7975 21.5187 25.9955 22.0186 25.9375C22.5185 25.8794 22.9554 25.5732 23.1805 25.1231L25.4173 20.6494Z" fill="#2275C2"/>
</svg>
