<svg width="26" height="26" viewBox="0 0 26 26" fill="none" xmlns="http://www.w3.org/2000/svg">
<path fill-rule="evenodd" clip-rule="evenodd" d="M13 25.5C6.09644 25.5 0.5 19.9036 0.5 13C0.5 6.09644 6.09644 0.5 13 0.5C19.9036 0.5 25.5 6.09644 25.5 13C25.5 19.9036 19.9036 25.5 13 25.5ZM13 3C7.47715 3 3 7.47715 3 13C3 18.5228 7.47715 23 13 23C18.5228 23 23 18.5228 23 13C23 7.47715 18.5228 3 13 3ZM10.5 6.75C10.5 6.05964 11.0596 5.5 11.75 5.5H14.5625C17.1513 5.5 19.25 7.59867 19.25 10.1875C19.25 12.7763 17.1513 14.875 14.5625 14.875H13V16.125H15.5C16.1904 16.125 16.75 16.6846 16.75 17.375C16.75 18.0654 16.1904 18.625 15.5 18.625H13V19.875C13 20.5654 12.4404 21.125 11.75 21.125C11.0596 21.125 10.5 20.5654 10.5 19.875V18.625H8C7.30964 18.625 6.75 18.0654 6.75 17.375C6.75 16.6846 7.30964 16.125 8 16.125H10.5V14.875H8C7.30964 14.875 6.75 14.3154 6.75 13.625C6.75 12.9346 7.30964 12.375 8 12.375H10.5V6.75ZM13 12.375H14.5625C15.7706 12.375 16.75 11.3956 16.75 10.1875C16.75 8.97938 15.7706 8 14.5625 8H13V12.375Z" fill="white"/>
</svg>
