<svg width="50" height="50" viewBox="0 0 50 50" fill="none" xmlns="http://www.w3.org/2000/svg">
<path fill-rule="evenodd" clip-rule="evenodd" d="M33.6249 2.50311C33.6249 1.12068 34.7442 0 36.1249 0C37.5057 0 38.6249 1.12068 38.6249 2.50311V2.63147C38.6249 4.0139 37.5057 5.13458 36.1249 5.13458C34.7442 5.13458 33.6249 4.0139 33.6249 2.63147V2.50311ZM24.8057 13.6559C26.1534 13.952 27.4722 13.0937 27.7513 11.7389L29.0013 5.67059C29.2804 4.31576 28.4141 2.97745 27.0663 2.68137C25.7186 2.3853 24.3998 3.24359 24.1207 4.59842L22.8707 10.6667C22.5916 12.0215 23.458 13.3598 24.8057 13.6559ZM15.4051 11.5102C14.1187 11.0842 12.7221 11.7682 12.2599 13.0507L0.149361 46.6562C-0.173901 47.5532 0.0366683 48.5533 0.692784 49.2373C1.3489 49.9212 2.33716 50.1708 3.24323 49.8813L36.0692 39.3936C37.2655 39.0114 37.9995 37.8011 37.7853 36.5641C36.4744 28.9921 32.4159 23.2374 27.9816 19.158C23.5684 15.0978 18.6764 12.5937 15.4051 11.5102ZM6.5629 43.5717L14.3868 21.8613C15.4871 24.5233 17.1045 27.5261 19.436 29.9758C22.37 33.0585 25.5114 35.2113 28.1611 36.6712L6.5629 43.5717ZM23.0602 26.5051C25.9424 29.5335 29.0786 31.5331 31.56 32.7912C29.9759 28.7567 27.4202 25.4611 24.592 22.8592C22.5429 20.974 20.3812 19.4824 18.409 18.3664C19.3729 21.085 20.8706 24.2046 23.0602 26.5051ZM40.9678 23.7596C39.5901 23.8508 38.5471 25.043 38.6382 26.4225C38.7294 27.8019 39.9201 28.8461 41.2978 28.7549L47.6584 28.3336C49.036 28.2424 50.079 27.0502 49.9879 25.6708C49.8968 24.2914 48.706 23.2471 47.3283 23.3383L40.9678 23.7596ZM37.629 17.7952C36.6651 18.785 35.1024 18.785 34.1385 17.7952C33.1746 16.8053 33.1746 15.2005 34.1385 14.2107L37.2221 11.0442C38.186 10.0544 39.7487 10.0544 40.7126 11.0442C41.6764 12.0341 41.6764 13.6389 40.7125 14.6287L37.629 17.7952ZM46.123 12.8364C44.7423 12.8364 43.623 13.9571 43.623 15.3396V15.4679C43.623 16.8503 44.7423 17.971 46.123 17.971C47.5037 17.971 48.623 16.8503 48.623 15.4679V15.3396C48.623 13.9571 47.5037 12.8364 46.123 12.8364Z" fill="#2275C2"/>
</svg>
