<svg width="46" height="50" viewBox="0 0 46 50" fill="none" xmlns="http://www.w3.org/2000/svg">
<path fill-rule="evenodd" clip-rule="evenodd" d="M8 42.5L10.5 42.5C10.5 46.6421 13.8579 50 18 50H38C42.1421 50 45.5 46.6421 45.5 42.5V15C45.5 10.8579 42.1421 7.5 38 7.5C38 3.35787 34.6421 0 30.5 0H8C3.85786 0 0.500004 3.35787 0.500004 7.5L0.5 35C0.5 39.1421 3.85786 42.5 8 42.5ZM13 37.5L13.0039 37.5H30.5C31.8807 37.5 33 36.3807 33 35L33 10V7.5C33 6.11929 31.8807 5 30.5 5L8 5C6.61929 5 5.5 6.11929 5.5 7.5L5.5 35C5.5 36.3807 6.61929 37.5 8 37.5H12.9961L13 37.5ZM40.5 15C40.5 13.6193 39.3807 12.5 38 12.5L38 35C38 39.1421 34.6421 42.5 30.5 42.5L15.5 42.5C15.5 43.8807 16.6193 45 18 45H38C39.3807 45 40.5 43.8807 40.5 42.5V15ZM25.5 10C26.8807 10 28 11.1193 28 12.5C28 13.8807 26.8807 15 25.5 15H13C11.6193 15 10.5 13.8807 10.5 12.5C10.5 11.1193 11.6193 10 13 10H25.5ZM28 21.25C28 19.8693 26.8807 18.75 25.5 18.75H13C11.6193 18.75 10.5 19.8693 10.5 21.25C10.5 22.6307 11.6193 23.75 13 23.75H25.5C26.8807 23.75 28 22.6307 28 21.25ZM25.5 27.5C26.8807 27.5 28 28.6193 28 30C28 31.3807 26.8807 32.5 25.5 32.5H13C11.6193 32.5 10.5 31.3807 10.5 30C10.5 28.6193 11.6193 27.5 13 27.5H25.5Z" fill="#2275C2"/>
</svg>
