<svg width="46" height="50" viewBox="0 0 46 50" fill="none" xmlns="http://www.w3.org/2000/svg">
<path fill-rule="evenodd" clip-rule="evenodd" d="M41.7198 9.71167L26.7802 1.0206C24.441 -0.340199 21.559 -0.3402 19.2198 1.0206L4.28016 9.71167C1.94099 11.0725 0.5 13.5873 0.5 16.3089V33.6911C0.5 36.4127 1.94099 38.9275 4.28016 40.2883L19.2198 48.9794C21.559 50.3402 24.441 50.3402 26.7802 48.9794L41.7198 40.2883C44.059 38.9275 45.5 36.4127 45.5 33.6911V16.3089C45.5 13.5873 44.059 11.0725 41.7198 9.71167ZM21.7399 5.41877C22.5197 4.96517 23.4803 4.96517 24.2601 5.41877L39.1997 14.1098C39.9795 14.5634 40.4598 15.4017 40.4598 16.3089V33.6911C40.4598 34.5983 39.9795 35.4366 39.1997 35.8902L24.2601 44.5812C23.4803 45.0348 22.5197 45.0348 21.7399 44.5812L6.80026 35.8902C6.02054 35.4366 5.54021 34.5983 5.54021 33.6911V16.3089C5.54021 15.4017 6.02054 14.5634 6.80026 14.1098L21.7399 5.41877ZM31.3365 21.4175C32.1565 20.2844 31.9096 18.6959 30.785 17.8697C29.6604 17.0434 28.084 17.2922 27.264 18.4254L21.8675 25.8826L19.9357 23.4239C19.0718 22.3243 17.4868 22.1386 16.3956 23.0091C15.3043 23.8796 15.12 25.4766 15.9839 26.5761L19.9741 31.6547C20.4629 32.2769 21.2124 32.6331 21.9999 32.6174C22.7873 32.6016 23.5222 32.2159 23.9862 31.5746L31.3365 21.4175Z" fill="white"/>
</svg>
