<svg width="46" height="50" viewBox="0 0 46 50" fill="none" xmlns="http://www.w3.org/2000/svg">
<path fill-rule="evenodd" clip-rule="evenodd" d="M38 50L8.00001 50C3.85787 50 0.500005 46.6421 0.5 42.5V7.5C0.5 3.35786 3.85787 0 8 0H23H30.6042C32.7867 0 34.8609 0.950699 36.2857 2.60402L39.4922 6.32502L43.6126 10.9737C44.8286 12.3455 45.5 14.1153 45.5 15.9485L45.5 25V42.5C45.5 46.6421 42.1421 50 38 50ZM35.7273 9.61539L33 6.45055V12.5H38.2841L35.7273 9.61539ZM28 15V5L23 5L8 5C6.61929 5 5.5 6.11929 5.5 7.5L5.5 42.5C5.5 43.8807 6.61929 45 8 45L38 45C39.3807 45 40.5 43.8807 40.5 42.5L40.5 25V17.5H30.5C29.1193 17.5 28 16.3807 28 15ZM21.75 20C21.75 18.6193 20.6307 17.5 19.25 17.5C17.8693 17.5 16.75 18.6193 16.75 20V30C16.75 30.8359 17.1678 31.6165 17.8632 32.0801L25.3633 37.0801C26.5121 37.846 28.0642 37.5356 28.8301 36.3868C29.596 35.2379 29.2856 33.6858 28.1367 32.9199L21.75 28.662V20Z" fill="#2275C2"/>
</svg>
