<svg width="34" height="34" viewBox="0 0 34 34" fill="none" xmlns="http://www.w3.org/2000/svg">
<path fill-rule="evenodd" clip-rule="evenodd" d="M27.4931 7.9941C25.6567 6.15774 22.4059 4.25 18.4163 4.25C14.4378 4.25 11.256 6.07773 9.41044 7.92327C7.86926 9.46444 6.27781 12.0019 5.806 15.1362L5.25141 14.5816C4.69817 14.0284 3.80118 14.0284 3.24794 14.5816C2.6947 15.1348 2.6947 16.0318 3.24794 16.5851L6.08127 19.4184C6.59171 19.9288 7.40431 19.9738 7.96799 19.5229L11.5097 16.6896C12.1206 16.2008 12.2197 15.3093 11.7309 14.6983C11.2421 14.0874 10.3506 13.9883 9.73969 14.4771L8.64089 15.3561C9.04595 13.0052 10.257 11.0837 11.4139 9.92673C12.8213 8.51932 15.3116 7.08333 18.4163 7.08333C21.5101 7.08333 24.073 8.58098 25.4896 9.99757C26.897 11.405 28.333 13.8952 28.333 17C28.333 20.0938 26.8354 22.6567 25.4188 24.0733C24.0114 25.4807 21.5211 26.9167 18.4163 26.9167C17.6339 26.9167 16.9997 27.5509 16.9997 28.3333C16.9997 29.1157 17.6339 29.75 18.4163 29.75C22.3949 29.75 25.5767 27.9223 27.4222 26.0767C29.2586 24.2404 31.1663 20.9895 31.1663 17C31.1663 13.0215 29.3386 9.83963 27.4931 7.9941ZM18.4163 12.0417C18.4163 11.2593 17.7821 10.625 16.9997 10.625C16.2173 10.625 15.583 11.2593 15.583 12.0417V18.2396C15.583 18.6481 15.7594 19.0367 16.0668 19.3057L20.3168 23.0245C20.9056 23.5397 21.8006 23.48 22.3158 22.8912C22.831 22.3024 22.7714 21.4074 22.1826 20.8922L18.4163 17.5967V12.0417Z" fill="#2275C2"/>
</svg>
