<svg width="34" height="34" viewBox="0 0 34 34" fill="none" xmlns="http://www.w3.org/2000/svg">
<path fill-rule="evenodd" clip-rule="evenodd" d="M4.06079 11.8323C5.03492 11.1622 6.32271 11.1675 7.29131 11.8455L11.4466 14.7542L14.3692 7.44775C14.7994 6.37205 15.8413 5.66669 16.9998 5.66669C18.1584 5.66669 19.2002 6.37205 19.6305 7.44775L22.5531 14.7542L26.7084 11.8455C27.677 11.1675 28.9648 11.1622 29.9389 11.8323C30.913 12.5023 31.3687 13.7068 31.0819 14.8539L28.2486 26.1872C27.9332 27.4485 26.8 28.3334 25.4998 28.3334H8.49984C7.19971 28.3334 6.06643 27.4485 5.7511 26.1872L2.91777 14.8539C2.63101 13.7068 3.08665 12.5023 4.06079 11.8323ZM25.4998 25.5H8.49984L5.6665 14.1667L12.0178 18.6126C12.3918 18.8744 12.9121 18.7192 13.0817 18.2954L16.9998 8.50002L20.918 18.2954C21.0875 18.7192 21.6079 18.8744 21.9819 18.6126L28.3332 14.1667L25.4998 25.5Z" fill="#2275C2"/>
</svg>
