<svg width="34" height="34" viewBox="0 0 34 34" fill="none" xmlns="http://www.w3.org/2000/svg">
<path fill-rule="evenodd" clip-rule="evenodd" d="M17 13.6666C16.0796 13.6666 15.3334 12.9205 15.3334 12V7.13824C11.1459 7.84077 7.84084 11.1458 7.1383 15.3333H12C12.9205 15.3333 13.6667 16.0795 13.6667 17C13.6667 17.9205 12.9205 18.6666 12 18.6666H7.13831C7.84084 22.8542 11.1459 26.1592 15.3334 26.8617V22C15.3334 21.0795 16.0796 20.3333 17 20.3333C17.9205 20.3333 18.6667 21.0795 18.6667 22V26.8617C22.8542 26.1592 26.1592 22.8542 26.8618 18.6668H22C21.0796 18.6668 20.3334 17.9206 20.3334 17.0001C20.3334 16.0797 21.0796 15.3335 22 15.3335H26.8618C26.1593 11.1459 22.8543 7.84078 18.6667 7.13824V12C18.6667 12.9205 17.9205 13.6666 17 13.6666ZM30.2302 15.3335C29.4782 9.3022 24.698 4.52189 18.6667 3.7698V1.99998C18.6667 1.07951 17.9205 0.333313 17 0.333313C16.0796 0.333313 15.3334 1.07951 15.3334 1.99998V3.7698C9.30218 4.52188 4.52194 9.30212 3.76986 15.3333H2.00004C1.07957 15.3333 0.333374 16.0795 0.333374 17C0.333374 17.9205 1.07957 18.6666 2.00004 18.6666H3.76986C4.52194 24.6978 9.30218 29.4781 15.3334 30.2302V32C15.3334 32.9205 16.0796 33.6666 17 33.6666C17.9205 33.6666 18.6667 32.9205 18.6667 32V30.2302C24.6979 29.4781 29.4781 24.6979 30.2302 18.6668H32C32.9205 18.6668 33.6667 17.9206 33.6667 17.0001C33.6667 16.0797 32.9205 15.3335 32 15.3335H30.2302Z" fill="white"/>
</svg>
