<svg width="50" height="35" viewBox="0 0 50 35" fill="none" xmlns="http://www.w3.org/2000/svg">
<path fill-rule="evenodd" clip-rule="evenodd" d="M7.31867 34.3891L7.31813 34.3897L7.33803 34.4066C7.80876 34.8061 8.41841 35.0165 9.04199 34.999C9.6656 34.9815 10.2618 34.7371 10.7077 34.3112C11.1541 33.8849 11.4162 33.3084 11.435 32.6985C11.4538 32.0886 11.2276 31.4978 10.8076 31.0465L10.8082 31.0459L10.7895 31.0281C7.03064 27.4366 4.92239 22.5703 4.92239 17.5C4.92239 12.4297 7.03064 7.56336 10.7895 3.97195L10.79 3.97249L10.8076 3.95355C11.2276 3.50223 11.4538 2.91141 11.435 2.30149C11.4162 1.69163 11.1541 1.1151 10.7077 0.688781C10.2618 0.26292 9.6656 0.0185505 9.04199 0.00101813C8.41841 -0.0165142 7.80875 0.193927 7.33803 0.593445L7.33753 0.592861L7.31867 0.610885C2.63447 5.08866 -1.04195e-06 11.1629 -7.64949e-07 17.5C-4.87947e-07 23.8371 2.63447 29.9113 7.31867 34.3891ZM14.4823 28.0418L14.4814 28.0428L14.5075 28.0642C14.9801 28.4514 15.5854 28.6519 16.2021 28.6295C16.8188 28.607 17.407 28.363 17.8481 27.9417C18.2897 27.52 18.5513 26.9513 18.5754 26.3483C18.5994 25.7451 18.3839 25.1583 17.9765 24.7049L17.9774 24.704L17.9531 24.6808C15.9588 22.7755 14.8417 20.1955 14.8417 17.5091C14.8417 14.8278 15.9545 12.2525 17.9417 10.3483C18.194 10.1385 18.4001 9.8811 18.5469 9.59095C18.6962 9.29551 18.7805 8.97299 18.7936 8.64372C18.8068 8.31444 18.7485 7.9865 18.623 7.68065C18.4974 7.37485 18.3076 7.09836 18.0664 6.86798C17.8252 6.63764 17.5378 6.4583 17.2226 6.34031C16.9075 6.22232 16.5708 6.16795 16.2335 6.18024C15.8961 6.19253 15.5645 6.27124 15.2594 6.41196C14.9596 6.55025 14.6911 6.74575 14.4708 6.98741C11.5583 9.77794 9.9193 13.5611 9.9193 17.5091C9.9193 21.4623 11.5626 25.2502 14.4823 28.0418ZM18.1518 9.39418C18.0304 9.63423 17.8584 9.84774 17.6466 10.0213C15.5676 12.0074 14.3996 14.7008 14.3996 17.5091C14.3996 20.3174 15.5676 23.0108 17.6466 24.9968C17.9791 25.367 18.1531 25.8435 18.1336 26.3309C18.1142 26.8183 17.9027 27.2807 17.5416 27.6256C17.1804 27.9705 16.6962 28.1725 16.1859 28.1911L16.1851 28.1911C16.6955 28.1725 17.1797 27.9705 17.5408 27.6256C17.902 27.2807 18.1134 26.8183 18.1329 26.3309C18.1523 25.8435 17.9784 25.367 17.6458 24.9969C15.5668 23.0108 14.3989 20.3174 14.3989 17.5091C14.3989 14.7008 15.5668 12.0074 17.6458 10.0213C17.8576 9.84776 18.0296 9.63425 18.151 9.3942C18.2724 9.15415 18.3405 8.89275 18.3512 8.62637C18.3618 8.35999 18.3147 8.09438 18.2128 7.8462C18.1109 7.59802 17.9565 7.37262 17.7591 7.18412C17.5617 6.99563 17.3257 6.8481 17.0658 6.7508C16.8438 6.66766 16.6084 6.6227 16.3706 6.61772C16.6086 6.62262 16.8443 6.66755 17.0666 6.75079C17.3265 6.84808 17.5625 6.99561 17.7599 7.1841C17.9572 7.3726 18.1117 7.598 18.2136 7.84618C18.3155 8.09436 18.3626 8.35997 18.3519 8.62635C18.3413 8.89273 18.2731 9.15413 18.1518 9.39418ZM10.9931 2.3149C10.9779 1.82212 10.7662 1.3535 10.4012 1.00491C10.0362 0.656303 9.54546 0.454067 9.02947 0.43956C8.99105 0.43848 8.9527 0.438446 8.91447 0.439445C8.95245 0.438469 8.99054 0.438507 9.02871 0.439579C9.5447 0.454086 10.0354 0.656322 10.4004 1.00492C10.7654 1.35352 10.9772 1.82214 10.9924 2.31492C11.0076 2.8077 10.825 3.28741 10.4821 3.65591C6.63866 7.32818 4.47957 12.3078 4.47957 17.5C4.47957 22.6922 6.63866 27.6719 10.4821 31.3441C10.825 31.7126 11.0076 32.1923 10.9924 32.6851C10.9772 33.1779 10.7654 33.6465 10.4004 33.9951C10.0354 34.3437 9.5447 34.546 9.02871 34.5605L9.02948 34.5604C9.54547 34.5459 10.0362 34.3437 10.4012 33.9951C10.7662 33.6465 10.978 33.1779 10.9931 32.6851C11.0083 32.1923 10.8258 31.7126 10.4829 31.3441C6.63942 27.6718 4.48034 22.6922 4.48034 17.5C4.48034 12.3078 6.63942 7.32816 10.4829 3.65589C10.8258 3.28739 11.0083 2.80769 10.9931 2.3149ZM42.662 34.4066L42.6625 34.4071L42.6813 34.3891C47.3655 29.9113 50 23.8371 50 17.5C50 11.1629 47.3655 5.08866 42.6813 0.610888L42.6819 0.610334L42.662 0.593443C42.1912 0.193926 41.5816 -0.0165118 40.958 0.00101673C40.3344 0.0185491 39.7382 0.262926 39.2923 0.68878C38.8459 1.11511 38.5838 1.69163 38.565 2.30149C38.5462 2.91141 38.7724 3.50224 39.1924 3.95355L39.1918 3.95406L39.2105 3.97195C42.9694 7.56336 45.0776 12.4297 45.0776 17.5C45.0776 22.5703 42.9694 27.4366 39.2105 31.0281L39.21 31.0275L39.1924 31.0465C38.7724 31.4978 38.5462 32.0886 38.565 32.6985C38.5838 33.3084 38.8459 33.8849 39.2923 34.3112C39.7382 34.7371 40.3344 34.9815 40.958 34.999C41.5816 35.0165 42.1912 34.8061 42.662 34.4066ZM35.5884 28.0642L35.5892 28.0652L35.6136 28.0418C38.5333 25.2502 40.1766 21.4623 40.1766 17.5091C40.1766 13.5611 38.5377 9.77793 35.6252 6.9874C35.4048 6.74573 35.1364 6.55024 34.8365 6.41196C34.5314 6.27123 34.1998 6.19252 33.8625 6.18023C33.5251 6.16795 33.1884 6.22231 32.8733 6.3403C32.5581 6.4583 32.2707 6.63763 32.0296 6.86797C31.7883 7.09835 31.5985 7.37485 31.473 7.68064C31.3474 7.98649 31.2892 8.31444 31.3023 8.64371C31.3154 8.97298 31.3997 9.2955 31.5491 9.59095C31.6958 9.88109 31.902 10.1385 32.1542 10.3483C34.1414 12.2525 35.2542 14.8278 35.2542 17.5091C35.2542 20.1955 34.1372 22.7755 32.1428 24.6808L32.1419 24.6798L32.1194 24.7049C31.712 25.1583 31.4965 25.7451 31.5206 26.3483C31.5447 26.9513 31.8063 27.52 32.2478 27.9417C32.6889 28.363 33.2771 28.607 33.8938 28.6295C34.5105 28.6519 35.1158 28.4514 35.5884 28.0642ZM34.6502 6.80981C34.9016 6.92574 35.1252 7.08999 35.3069 7.2923C38.1421 10.003 39.7346 13.6777 39.7346 17.5091C39.7346 21.3404 38.1421 25.0151 35.3069 27.7259C34.951 28.0175 34.5013 28.1815 34.035 28.1919C34.501 28.1813 34.9504 28.0174 35.3062 27.7259C38.1413 25.0151 39.7338 21.3405 39.7338 17.5091C39.7338 13.6777 38.1413 10.0031 35.3062 7.29232C35.1244 7.09001 34.9008 6.92575 34.6495 6.80983C34.3981 6.69391 34.1244 6.62883 33.8455 6.61867C33.8042 6.61717 33.7629 6.61688 33.7218 6.61778C33.7632 6.61685 33.8047 6.61714 33.8462 6.61865C34.1252 6.62882 34.3989 6.69389 34.6502 6.80981ZM41.256 0.4508C41.6691 0.495115 42.0605 0.660223 42.3747 0.926867C46.9743 5.32379 49.5579 11.2848 49.5579 17.5C49.5579 23.7152 46.9743 29.6762 42.3747 34.0731C42.0143 34.379 41.5525 34.5512 41.0727 34.5609C41.5522 34.551 42.0138 34.3788 42.3739 34.0732C46.9735 29.6762 49.5572 23.7152 49.5572 17.5C49.5572 11.2848 46.9735 5.32381 42.3739 0.926886C42.0599 0.660402 41.6689 0.495249 41.256 0.4508ZM29.9114 17.5C29.9114 14.8078 27.7124 12.6254 24.9997 12.6254C24.9654 12.6254 24.9312 12.6257 24.897 12.6264C24.9314 12.6257 24.9659 12.6254 25.0005 12.6254C27.7131 12.6254 29.9122 14.8078 29.9122 17.5C29.9122 20.1182 27.8324 22.2543 25.223 22.3697C27.832 22.2539 29.9114 20.118 29.9114 17.5ZM30.3542 17.5C30.3542 14.5655 27.9573 12.1866 25.0005 12.1866C22.0437 12.1866 19.6467 14.5655 19.6467 17.5C19.6467 20.4345 22.0437 22.8134 25.0005 22.8134C27.9573 22.8134 30.3542 20.4345 30.3542 17.5Z" fill="#2275C2"/>
</svg>
